<mxfile host="app.diagrams.net" modified="2023-09-14T20:22:33.358Z" agent="Mozilla/5.0 (Windows NT 10.0; Win64; x64) AppleWebKit/537.36 (KHTML, like Gecko) Chrome/116.0.0.0 Safari/537.36" etag="tNkrTDm-dxu-r1XCJQRb" version="21.7.5" type="github">
  <diagram name="Page-1" id="cZnD0VzMIRA9UIOgaPik">
    <mxGraphModel dx="1434" dy="790" grid="1" gridSize="10" guides="1" tooltips="1" connect="1" arrows="1" fold="1" page="1" pageScale="1" pageWidth="850" pageHeight="1100" math="0" shadow="0">
      <root>
        <mxCell id="0" />
        <mxCell id="1" parent="0" />
        <mxCell id="DQgrx1xYY4xh-wL-nW-u-18" style="edgeStyle=orthogonalEdgeStyle;rounded=0;orthogonalLoop=1;jettySize=auto;html=1;exitX=0.5;exitY=1;exitDx=0;exitDy=0;entryX=0.433;entryY=-0.1;entryDx=0;entryDy=0;entryPerimeter=0;" edge="1" parent="1" source="DQgrx1xYY4xh-wL-nW-u-1" target="DQgrx1xYY4xh-wL-nW-u-11">
          <mxGeometry relative="1" as="geometry" />
        </mxCell>
        <mxCell id="DQgrx1xYY4xh-wL-nW-u-20" style="edgeStyle=orthogonalEdgeStyle;rounded=0;orthogonalLoop=1;jettySize=auto;html=1;exitX=0.75;exitY=1;exitDx=0;exitDy=0;entryX=0;entryY=0.25;entryDx=0;entryDy=0;" edge="1" parent="1" source="DQgrx1xYY4xh-wL-nW-u-1" target="DQgrx1xYY4xh-wL-nW-u-8">
          <mxGeometry relative="1" as="geometry" />
        </mxCell>
        <mxCell id="DQgrx1xYY4xh-wL-nW-u-1" value="name&lt;br&gt;address" style="rounded=0;whiteSpace=wrap;html=1;" vertex="1" parent="1">
          <mxGeometry x="100" y="150" width="120" height="60" as="geometry" />
        </mxCell>
        <mxCell id="DQgrx1xYY4xh-wL-nW-u-17" style="edgeStyle=orthogonalEdgeStyle;rounded=0;orthogonalLoop=1;jettySize=auto;html=1;exitX=1;exitY=0.5;exitDx=0;exitDy=0;entryX=0;entryY=0.5;entryDx=0;entryDy=0;" edge="1" parent="1" source="DQgrx1xYY4xh-wL-nW-u-3" target="DQgrx1xYY4xh-wL-nW-u-5">
          <mxGeometry relative="1" as="geometry" />
        </mxCell>
        <mxCell id="DQgrx1xYY4xh-wL-nW-u-3" value="Library" style="rounded=0;whiteSpace=wrap;html=1;" vertex="1" parent="1">
          <mxGeometry x="100" y="140" width="120" height="20" as="geometry" />
        </mxCell>
        <mxCell id="DQgrx1xYY4xh-wL-nW-u-21" style="edgeStyle=orthogonalEdgeStyle;rounded=0;orthogonalLoop=1;jettySize=auto;html=1;exitX=0.25;exitY=1;exitDx=0;exitDy=0;entryX=0.25;entryY=0;entryDx=0;entryDy=0;" edge="1" parent="1" source="DQgrx1xYY4xh-wL-nW-u-4" target="DQgrx1xYY4xh-wL-nW-u-9">
          <mxGeometry relative="1" as="geometry" />
        </mxCell>
        <mxCell id="DQgrx1xYY4xh-wL-nW-u-4" value="name&lt;br&gt;member number&lt;br&gt;birth date&lt;br&gt;" style="rounded=0;whiteSpace=wrap;html=1;" vertex="1" parent="1">
          <mxGeometry x="360" y="160" width="120" height="50" as="geometry" />
        </mxCell>
        <mxCell id="DQgrx1xYY4xh-wL-nW-u-16" style="edgeStyle=orthogonalEdgeStyle;rounded=0;orthogonalLoop=1;jettySize=auto;html=1;exitX=1;exitY=0.5;exitDx=0;exitDy=0;entryX=0;entryY=0.5;entryDx=0;entryDy=0;" edge="1" parent="1" source="DQgrx1xYY4xh-wL-nW-u-5" target="DQgrx1xYY4xh-wL-nW-u-7">
          <mxGeometry relative="1" as="geometry" />
        </mxCell>
        <mxCell id="DQgrx1xYY4xh-wL-nW-u-5" value="Library Member" style="rounded=0;whiteSpace=wrap;html=1;" vertex="1" parent="1">
          <mxGeometry x="360" y="140" width="120" height="20" as="geometry" />
        </mxCell>
        <mxCell id="DQgrx1xYY4xh-wL-nW-u-6" value="member name&lt;br&gt;id number" style="rounded=0;whiteSpace=wrap;html=1;" vertex="1" parent="1">
          <mxGeometry x="610" y="160" width="120" height="50" as="geometry" />
        </mxCell>
        <mxCell id="DQgrx1xYY4xh-wL-nW-u-7" value="Library card" style="rounded=0;whiteSpace=wrap;html=1;" vertex="1" parent="1">
          <mxGeometry x="610" y="140" width="120" height="20" as="geometry" />
        </mxCell>
        <mxCell id="DQgrx1xYY4xh-wL-nW-u-8" value="title&lt;br&gt;author" style="rounded=0;whiteSpace=wrap;html=1;" vertex="1" parent="1">
          <mxGeometry x="360" y="370" width="120" height="50" as="geometry" />
        </mxCell>
        <mxCell id="DQgrx1xYY4xh-wL-nW-u-9" value="book" style="rounded=0;whiteSpace=wrap;html=1;" vertex="1" parent="1">
          <mxGeometry x="360" y="350" width="120" height="20" as="geometry" />
        </mxCell>
        <mxCell id="DQgrx1xYY4xh-wL-nW-u-22" style="edgeStyle=orthogonalEdgeStyle;rounded=0;orthogonalLoop=1;jettySize=auto;html=1;exitX=1;exitY=0.25;exitDx=0;exitDy=0;entryX=0;entryY=0.75;entryDx=0;entryDy=0;" edge="1" parent="1" source="DQgrx1xYY4xh-wL-nW-u-10" target="DQgrx1xYY4xh-wL-nW-u-12">
          <mxGeometry relative="1" as="geometry" />
        </mxCell>
        <mxCell id="DQgrx1xYY4xh-wL-nW-u-10" value="name&lt;br&gt;birth date" style="rounded=0;whiteSpace=wrap;html=1;" vertex="1" parent="1">
          <mxGeometry x="110" y="490" width="120" height="50" as="geometry" />
        </mxCell>
        <mxCell id="DQgrx1xYY4xh-wL-nW-u-19" style="edgeStyle=orthogonalEdgeStyle;rounded=0;orthogonalLoop=1;jettySize=auto;html=1;exitX=0.75;exitY=0;exitDx=0;exitDy=0;entryX=0.25;entryY=1;entryDx=0;entryDy=0;" edge="1" parent="1" source="DQgrx1xYY4xh-wL-nW-u-11" target="DQgrx1xYY4xh-wL-nW-u-8">
          <mxGeometry relative="1" as="geometry" />
        </mxCell>
        <mxCell id="DQgrx1xYY4xh-wL-nW-u-11" value="Librarian" style="rounded=0;whiteSpace=wrap;html=1;" vertex="1" parent="1">
          <mxGeometry x="110" y="470" width="120" height="20" as="geometry" />
        </mxCell>
        <mxCell id="DQgrx1xYY4xh-wL-nW-u-14" style="edgeStyle=orthogonalEdgeStyle;rounded=0;orthogonalLoop=1;jettySize=auto;html=1;entryX=1;entryY=0.5;entryDx=0;entryDy=0;" edge="1" parent="1" source="DQgrx1xYY4xh-wL-nW-u-12" target="DQgrx1xYY4xh-wL-nW-u-4">
          <mxGeometry relative="1" as="geometry" />
        </mxCell>
        <mxCell id="DQgrx1xYY4xh-wL-nW-u-12" value="member name&lt;br&gt;id number" style="rounded=0;whiteSpace=wrap;html=1;" vertex="1" parent="1">
          <mxGeometry x="600" y="480" width="120" height="50" as="geometry" />
        </mxCell>
        <mxCell id="DQgrx1xYY4xh-wL-nW-u-13" value="Library Account" style="rounded=0;whiteSpace=wrap;html=1;" vertex="1" parent="1">
          <mxGeometry x="600" y="460" width="120" height="20" as="geometry" />
        </mxCell>
        <mxCell id="DQgrx1xYY4xh-wL-nW-u-15" value="has" style="text;html=1;align=center;verticalAlign=middle;resizable=0;points=[];autosize=1;strokeColor=none;fillColor=none;" vertex="1" parent="1">
          <mxGeometry x="530" y="310" width="40" height="30" as="geometry" />
        </mxCell>
        <mxCell id="DQgrx1xYY4xh-wL-nW-u-23" value="has" style="text;html=1;align=center;verticalAlign=middle;resizable=0;points=[];autosize=1;strokeColor=none;fillColor=none;" vertex="1" parent="1">
          <mxGeometry x="250" y="128" width="40" height="30" as="geometry" />
        </mxCell>
        <mxCell id="DQgrx1xYY4xh-wL-nW-u-24" value="has" style="text;html=1;align=center;verticalAlign=middle;resizable=0;points=[];autosize=1;strokeColor=none;fillColor=none;" vertex="1" parent="1">
          <mxGeometry x="520" y="128" width="40" height="30" as="geometry" />
        </mxCell>
        <mxCell id="DQgrx1xYY4xh-wL-nW-u-25" value="employs" style="text;html=1;align=center;verticalAlign=middle;resizable=0;points=[];autosize=1;strokeColor=none;fillColor=none;" vertex="1" parent="1">
          <mxGeometry x="100" y="320" width="70" height="30" as="geometry" />
        </mxCell>
        <mxCell id="DQgrx1xYY4xh-wL-nW-u-26" value="stores" style="text;html=1;align=center;verticalAlign=middle;resizable=0;points=[];autosize=1;strokeColor=none;fillColor=none;" vertex="1" parent="1">
          <mxGeometry x="180" y="308" width="60" height="30" as="geometry" />
        </mxCell>
        <mxCell id="DQgrx1xYY4xh-wL-nW-u-27" value="stocks" style="text;html=1;align=center;verticalAlign=middle;resizable=0;points=[];autosize=1;strokeColor=none;fillColor=none;" vertex="1" parent="1">
          <mxGeometry x="250" y="418" width="60" height="30" as="geometry" />
        </mxCell>
        <mxCell id="DQgrx1xYY4xh-wL-nW-u-28" value="updates" style="text;html=1;align=center;verticalAlign=middle;resizable=0;points=[];autosize=1;strokeColor=none;fillColor=none;" vertex="1" parent="1">
          <mxGeometry x="405" y="488" width="70" height="30" as="geometry" />
        </mxCell>
        <mxCell id="DQgrx1xYY4xh-wL-nW-u-29" value="checks out&lt;br&gt;" style="text;html=1;align=center;verticalAlign=middle;resizable=0;points=[];autosize=1;strokeColor=none;fillColor=none;" vertex="1" parent="1">
          <mxGeometry x="350" y="270" width="80" height="30" as="geometry" />
        </mxCell>
      </root>
    </mxGraphModel>
  </diagram>
</mxfile>
